<?xml version="1.0" standalone="no"?><!DOCTYPE svg PUBLIC "-//W3C//DTD SVG 1.1//EN" "http://www.w3.org/Graphics/SVG/1.1/DTD/svg11.dtd"><svg class="icon" width="300px" height="300.00px" viewBox="0 0 1024 1024" version="1.1" xmlns="http://www.w3.org/2000/svg"><path d="M593.1008 402.944a25.6 25.6 0 0 1-6.2464 0h-0.3072c-10.6496-1.1776-12.9536-9.3696-10.24-28.16 9.4208-67.2768 19.2-134.6048 28.8256-201.8816l9.216-65.5872a19.456 19.456 0 0 0-34.8672-14.3872c-57.4976 76.8-156.8768 210.9952-221.4912 298.9056a40.96 40.96 0 0 0 33.0752 65.3824h83.3024c12.1344 0.768 15.36 8.6528 12.5952 26.7776q-18.8928 120.9856-37.9904 242.0224v0.768a19.456 19.456 0 0 0 34.816 14.6432c53.9136-71.68 143.36-192.6656 202.24-273.0496a40.96 40.96 0 0 0-33.1264-65.3824h-59.8016z m-304.0768 427.776a30.72 30.72 0 0 0-11.8272-29.1328A382.5664 382.5664 0 0 1 378.88 136.2432a31.0784 31.0784 0 0 0 14.6432-10.8032 30.72 30.72 0 0 0-34.9184-47.0528A443.5456 443.5456 0 0 0 240.64 850.688a30.72 30.72 0 0 0 48.384-19.968zM725.6064 161.28a30.72 30.72 0 0 0 11.9808 28.7744 382.7712 382.7712 0 0 1-103.7312 667.9552 31.0272 31.0272 0 0 0-14.9504 10.9056 30.72 30.72 0 0 0 34.7136 46.9504 443.5968 443.5968 0 0 0 120.32-775.0656 30.72 30.72 0 0 0-48.3328 20.48zM477.696 900.2496a39.936 39.936 0 1 1-39.936-39.936 39.936 39.936 0 0 1 39.936 39.936z" fill="#ff9500" /></svg>