<svg id="图层_1" data-name="图层 1" xmlns="http://www.w3.org/2000/svg" viewBox="0 0 2829.12 825.99"><defs><style>.cls-1,.cls-2{fill:#fff;}.cls-2{opacity:0.6;}.cls-2,.cls-4{isolation:isolate;}.cls-3{fill:none;stroke:#fff;stroke-width:71px;}</style></defs><title>白-横</title><g id="页面1"><g id="切图复制"><g id="白-横"><g id="编组-5复制-2"><g id="编组-5复制"><g id="编组-3"><g id="编组-14复制-2"><path id="形状结合" class="cls-1" d="M441,342.06V272H234V230H483V355L363.37,484H483v42H309V484Z" transform="translate(-0.5 0)"/><path id="形状结合-2" data-name="形状结合" class="cls-2" d="M236,467,356.59,341H234V299H413v42L278,484.77V553H483v42H236Z" transform="translate(-0.5 0)"/></g><polyline id="路径复制-6" class="cls-3" points="679.5 511.24 679.5 599 357.5 785 35.5 599 35.5 227 357.5 41 357.5 41 679.5 227 679.5 315.95"/></g></g></g><g id="classzz复制" class="cls-4"><g class="cls-4"><path class="cls-1" d="M1011.35,525.75q-33-36.84-33-114.4T1011.62,297q33.28-36.84,100.93-36.85,58.85,0,90.75,29.15t31.9,85.8h-67.1q0-30.8-13.75-46.2t-42.9-15.4q-34.11,0-50,23.38t-16,71.77v6.6q0,48.41,16.22,71.22t52.53,22.83q28,0,42.63-15.95t14.57-45.65h63.8q0,54.45-32.18,84.7t-90.47,30.25Q1044.34,562.6,1011.35,525.75Z" transform="translate(-0.5 0)"/><path class="cls-1" d="M1291.84,158.35h66V556h-66Z" transform="translate(-0.5 0)"/><path class="cls-1" d="M1441.16,545.28q-28.34-17.34-28.32-64.08,0-55.54,47.3-78.1t134.2-22.55v-24.2q0-20.89-10.73-32.45t-38.77-11.55q-29.16,0-41.25,9.35t-12.1,23.1v7.7h-63.8a86.65,86.65,0,0,1-.55-12.1q0-37.39,32.17-58.85t85.53-21.45q57.75,0,86.62,23.65t28.88,67.65V489.45q0,9.9,5.5,14.58a20.51,20.51,0,0,0,13.75,4.67h17.6v45.1q-17.61,8.25-41.25,8.25-21.45,0-35.75-10.45T1600.94,523h-3.85q-32.46,39.6-92.4,39.6Q1469.49,562.6,1441.16,545.28Zm134.48-54.18q18.69-18.69,18.7-50.6V427.3q-53.35,0-83.6,10.17t-30.25,37.13q0,35.2,44,35.2Q1556.94,509.8,1575.64,491.1Z" transform="translate(-0.5 0)"/><path class="cls-1" d="M1756.86,537.85q-32.73-24.75-32.72-64.35a48.83,48.83,0,0,1,.27-6.6,17.78,17.78,0,0,0,.28-2.2H1789v4.4q.54,21.45,18.42,31.62t44.83,10.18q24.2,0,41.25-8t17-23.92a25.88,25.88,0,0,0-9.35-20.63,70.07,70.07,0,0,0-23.1-12.65q-13.76-4.67-39.05-10.72-34.11-8.25-55.83-16.5a91.89,91.89,0,0,1-37.12-25.85q-15.41-17.59-15.4-46.2,0-41.25,34.1-63.8t88.55-22.55q33.54,0,59.95,9.9t41,27.78a63,63,0,0,1,14.58,41l-.55,12.1H1904v-2.2q0-17-14-26.68t-40.42-9.62q-25.86,0-39,8T1797.29,341q0,15.41,16.22,22.83t49.78,14.57q36.3,8.25,58.57,16.77a100.36,100.36,0,0,1,38.78,26.68q16.5,18.15,16.5,48.95,0,47.85-34.38,69.85t-93.22,22Q1789.59,562.6,1756.86,537.85Z" transform="translate(-0.5 0)"/><path class="cls-1" d="M2052.2,537.85q-32.73-24.75-32.72-64.35a48.83,48.83,0,0,1,.27-6.6,17.78,17.78,0,0,0,.28-2.2h64.35v4.4q.54,21.45,18.42,31.62t44.83,10.18q24.2,0,41.25-8t17-23.92a25.88,25.88,0,0,0-9.35-20.63,70.07,70.07,0,0,0-23.1-12.65q-13.76-4.67-39.05-10.72-34.11-8.25-55.83-16.5a91.89,91.89,0,0,1-37.12-25.85q-15.4-17.59-15.4-46.2,0-41.25,34.1-63.8t88.55-22.55q33.54,0,59.95,9.9t41,27.78a63,63,0,0,1,14.58,41l-.55,12.1h-64.35v-2.2q0-17-14-26.68t-40.42-9.62q-25.86,0-39.05,8T2092.63,341q0,15.41,16.22,22.83t49.78,14.57q36.3,8.25,58.57,16.77A100.36,100.36,0,0,1,2256,421.8q16.5,18.15,16.5,48.95,0,47.85-34.38,69.85t-93.22,22Q2084.92,562.6,2052.2,537.85Z" transform="translate(-0.5 0)"/><path class="cls-1" d="M2304.37,525.2l147.4-204.6H2313.72V266.7H2548V297L2400.07,502.1h154.55V556H2304.37Z" transform="translate(-0.5 0)"/><path class="cls-1" d="M2579.37,525.2l147.4-204.6H2588.72V266.7H2823V297L2675.07,502.1h154.55V556H2579.37Z" transform="translate(-0.5 0)"/></g></g></g></g></g></svg>